<?xml version="1.0" encoding="iso-8859-1"?>
<!-- Generator: Adobe Illustrator 19.0.0, SVG Export Plug-In . SVG Version: 6.00 Build 0)  -->
<svg version="1.1" id="Layer_1" xmlns="http://www.w3.org/2000/svg" xmlns:xlink="http://www.w3.org/1999/xlink" x="0px" y="0px"
	 viewBox="0 0 473.931 473.931" style="enable-background:new 0 0 473.931 473.931;" xml:space="preserve">
<circle style="fill:#A2D4DE;" cx="236.966" cy="236.966" r="236.966"/>
<g>
	<path style="fill:#37919B;" d="M106.202,275.569v21.586c0,1.699,1.878,3.072,3.749,3.072h266.294c2.492,0,4.056-1.373,4.056-3.072
		v-21.586H106.202z"/>
	<path style="fill:#37919B;" d="M243.259,269.489H116.638c-5.759,0-10.436-4.677-10.436-10.44v-81.72
		c0-5.762,4.677-10.436,10.436-10.436H231.75l11.51,2.978V269.489z"/>
	<path style="fill:#37919B;" d="M243.244,169.865l11.409-2.975h115.213c5.766,0,10.436,4.677,10.436,10.443v81.765
		c0,5.766-4.67,10.436-10.436,10.436H243.244L243.244,169.865L243.244,169.865z"/>
</g>
<path style="fill:#2C8484;" d="M369.866,257.332l-253.227-0.004c-5.759,0-10.436,1.007-10.436,2.249v21.605l125.547-0.441
	l11.502-0.64l11.401,0.64l125.648,0.441v-21.605C380.301,258.331,375.632,257.332,369.866,257.332z"/>
<path style="fill:#308A8E;" d="M74.091,251.248l33.99,7.951l10.604-16.677c0,0,11.064-11.386,5.452-23.547
	s-17.773-12.628-17.773-12.628L75.34,228.023L74.091,251.248z"/>
<polygon style="fill:#30898E;" points="243.873,257.328 243.873,242.522 118.685,242.522 108.081,259.199 "/>
<path style="fill:#37919B;" d="M108.388,242.062c0-10.705-8.793-19.39-19.644-19.39c-10.844,0-19.644,8.681-19.644,19.39
	c0,8.34,5.343,15.427,12.819,18.17v47.805c0,7.308,26.469,7.308,26.469,0v-64.572c0-0.161-0.045-0.314-0.045-0.475
	C108.358,242.683,108.388,242.376,108.388,242.062z"/>
<path style="fill:#308A8E;" d="M412.406,251.248l-33.983,7.951l-10.604-16.677c0,0-11.072-11.386-5.459-23.547
	s17.773-12.628,17.773-12.628l31.03,21.676L412.406,251.248z"/>
<polygon style="fill:#30898E;" points="242.623,257.328 242.623,242.522 367.819,242.522 378.423,259.199 "/>
<path style="fill:#37919B;" d="M378.109,242.062c0-10.705,8.801-19.39,19.644-19.39c10.851,0,19.644,8.681,19.644,19.39
	c0,8.34-5.336,15.427-12.819,18.17v47.805c0,7.308-26.469,7.308-26.469,0v-64.572c0-0.161,0.045-0.314,0.052-0.475
	C378.142,242.683,378.109,242.376,378.109,242.062z"/>
<g>
</g>
<g>
</g>
<g>
</g>
<g>
</g>
<g>
</g>
<g>
</g>
<g>
</g>
<g>
</g>
<g>
</g>
<g>
</g>
<g>
</g>
<g>
</g>
<g>
</g>
<g>
</g>
<g>
</g>
</svg>
